<svg xmlns="http://www.w3.org/2000/svg" version="1.1" xmlns:xlink="http://www.w3.org/1999/xlink" xmlns:svgjs="http://svgjs.dev/svgjs" width="1440" height="560" preserveAspectRatio="none" viewBox="0 0 1440 560"><g mask="url(&quot;#SvgjsMask1170&quot;)" fill="none"><rect width="1440" height="560" x="0" y="0" fill="url(&quot;#SvgjsLinearGradient1171&quot;)"></rect><path d="M -164.15721021821025,421 C -92.16,354.8 51.84,86.2 195.84278978178975,90 C 339.84,93.8 411.84,441.8 555.8427897817897,440 C 699.84,438.2 771.84,105.8 915.8427897817897,81 C 1059.84,56.2 1131.84,286.8 1275.8427897817896,316 C 1419.84,345.2 1603.01,214.6 1635.8427897817896,227 C 1668.67,239.4 1479.17,347.8 1440,378" stroke="rgba(54, 67, 210, 1)" stroke-width="2"></path><path d="M -276.2596059451636,451 C -204.26,395.2 -60.26,197.4 83.74039405483636,172 C 227.74,146.6 299.74,308.2 443.7403940548364,324 C 587.74,339.8 659.74,234.4 803.7403940548363,251 C 947.74,267.6 1019.74,426 1163.7403940548363,407 C 1307.74,388 1468.49,147.4 1523.7403940548363,156 C 1578.99,164.6 1456.75,391.2 1440,450" stroke="rgba(54, 67, 210, 1)" stroke-width="2"></path><path d="M -571.1066526454726,270 C -499.11,299.8 -355.11,425.6 -211.10665264547265,419 C -67.11,412.4 4.89,253.2 148.89334735452735,237 C 292.89,220.8 364.89,330.8 508.89334735452735,338 C 652.89,345.2 724.89,265.4 868.8933473545274,273 C 1012.89,280.6 1114.67,400.8 1228.8933473545274,376 C 1343.11,351.2 1397.78,194.4 1440,149" stroke="rgba(54, 67, 210, 1)" stroke-width="2"></path><path d="M -405.1360697897861,454 C -333.14,412 -189.14,242.2 -45.13606978978612,244 C 98.86,245.8 170.86,458 314.8639302102139,463 C 458.86,468 530.86,271.6 674.8639302102139,269 C 818.86,266.4 890.86,454.6 1034.8639302102138,450 C 1178.86,445.4 1313.84,274.4 1394.8639302102138,246 C 1475.89,217.6 1430.97,295.6 1440,308" stroke="rgba(54, 67, 210, 1)" stroke-width="2"></path><path d="M -432.6690889300911,154 C -360.67,208 -216.67,434.8 -72.6690889300911,424 C 71.33,413.2 143.33,102.2 287.3309110699089,100 C 431.33,97.8 503.33,408.4 647.3309110699089,413 C 791.33,417.6 863.33,137.4 1007.3309110699089,123 C 1151.33,108.6 1280.8,333.2 1367.3309110699088,341 C 1453.86,348.8 1425.47,197.8 1440,162" stroke="rgba(54, 67, 210, 1)" stroke-width="2"></path><path d="M -701.6840595581216,150 C -629.68,177.6 -485.68,302.6 -341.68405955812153,288 C -197.68,273.4 -125.68,65.6 18.315940441878467,77 C 162.32,88.4 234.32,308.8 378.31594044187847,345 C 522.32,381.2 594.32,264.8 738.3159404418784,258 C 882.32,251.2 957.98,328.2 1098.3159404418784,311 C 1238.65,293.8 1371.66,199.8 1440,172" stroke="rgba(54, 67, 210, 1)" stroke-width="2"></path></g><defs><mask id="SvgjsMask1170"><rect width="1440" height="560" fill="#ffffff"></rect></mask><linearGradient x1="15.28%" y1="-39.29%" x2="84.72%" y2="139.29%" gradientUnits="userSpaceOnUse" id="SvgjsLinearGradient1171"><stop stop-color="#0e2a47" offset="0"></stop><stop stop-color="rgba(51, 100, 164, 1)" offset="1"></stop></linearGradient></defs></svg>